<svg id="visual" viewBox="0 0 900 600" width="900" height="600" xmlns="http://www.w3.org/2000/svg" xmlns:xlink="http://www.w3.org/1999/xlink" version="1.1"><rect x="0" y="0" width="900" height="600" fill="#ffffff"></rect><path d="M0 393L21.5 394C43 395 86 397 128.8 398.3C171.7 399.7 214.3 400.3 257.2 411.5C300 422.7 343 444.3 385.8 459.7C428.7 475 471.3 484 514.2 469C557 454 600 415 642.8 417.3C685.7 419.7 728.3 463.3 771.2 485.3C814 507.3 857 507.7 878.5 507.8L900 508L900 601L878.5 601C857 601 814 601 771.2 601C728.3 601 685.7 601 642.8 601C600 601 557 601 514.2 601C471.3 601 428.7 601 385.8 601C343 601 300 601 257.2 601C214.3 601 171.7 601 128.8 601C86 601 43 601 21.5 601L0 601Z" fill="#ebcfb2" stroke-linecap="round" stroke-linejoin="miter"></path></svg>