<svg id="visual" viewBox="0 0 900 600" width="900" height="600" xmlns="http://www.w3.org/2000/svg" xmlns:xlink="http://www.w3.org/1999/xlink" version="1.1"><rect x="0" y="0" width="900" height="600" fill="#ffffff"></rect><path d="M0 377L15 404C30 431 60 485 90 499.2C120 513.3 150 487.7 180 479.5C210 471.3 240 480.7 270 484C300 487.3 330 484.7 360 483.8C390 483 420 484 450 463C480 442 510 399 540 405C570 411 600 466 630 477.5C660 489 690 457 720 434.2C750 411.3 780 397.7 810 385.5C840 373.3 870 362.7 885 357.3L900 352L900 601L885 601C870 601 840 601 810 601C780 601 750 601 720 601C690 601 660 601 630 601C600 601 570 601 540 601C510 601 480 601 450 601C420 601 390 601 360 601C330 601 300 601 270 601C240 601 210 601 180 601C150 601 120 601 90 601C60 601 30 601 15 601L0 601Z" fill="#ebcfb2" stroke-linecap="round" stroke-linejoin="miter"></path></svg>